<svg width="28" height="28" viewBox="0 0 28 28" fill="none" xmlns="http://www.w3.org/2000/svg">
<path d="M20.9942 7.60647C20.9212 6.70711 20.1682 6 19.25 6H11.25L11.1482 6.00685C10.7822 6.05651 10.5 6.3703 10.5 6.75C10.5 7.16421 10.8358 7.5 11.25 7.5H19.25L19.3073 7.5066C19.4178 7.53251 19.5 7.63165 19.5 7.75V16L19.5068 16.1018C19.5565 16.4678 19.8703 16.75 20.25 16.75C20.6642 16.75 21 16.4142 21 16V7.75L20.9942 7.60647Z" fill="#3c79b4"/>
<path fill-rule="evenodd" clip-rule="evenodd" d="M17 9C17.5523 9 18 9.44772 18 10V21C18 21.5523 17.5523 22 17 22H8C7.44772 22 7 21.5523 7 21V10C7 9.44772 7.44772 9 8 9H17ZM16.5 10.5H8.5V20.5H16.5V10.5Z" fill="#3c79b4"/>
</svg>
