<svg width="24" height="24" viewBox="0 0 24 24" fill="none" xmlns="http://www.w3.org/2000/svg">
<path fill-rule="evenodd" clip-rule="evenodd" d="M20.3999 2.3999C21.0626 2.3999 21.5999 2.93716 21.5999 3.5999V20.3999C21.5999 21.0626 21.0626 21.5999 20.3999 21.5999H3.5999C2.93716 21.5999 2.3999 21.0626 2.3999 20.3999V3.5999C2.3999 2.93716 2.93716 2.3999 3.5999 2.3999H20.3999ZM7.1999 4.1999H4.1999V19.7999H19.7999V4.1999H16.7999V11.9999C16.7999 12.6626 16.2626 13.1999 15.5999 13.1999H8.3999C7.73716 13.1999 7.1999 12.6626 7.1999 11.9999V4.1999ZM8.9999 4.1999V11.3999H14.9999V4.1999H8.9999Z" fill="#5B5E60"/>
</svg>
