<svg width="20" height="20" viewBox="0 0 20 20" fill="none" xmlns="http://www.w3.org/2000/svg">
<path d="M9.5262 3.41786C9.82078 3.17762 10.2555 3.19505 10.5301 3.46962L13.5301 6.46962L13.5819 6.52626C13.8222 6.82082 13.8046 7.25556 13.5301 7.53017C13.2555 7.80477 12.8208 7.82223 12.5262 7.58192L12.4696 7.53017L10.7498 5.81044V14.1893L12.4696 12.4696C12.7624 12.1768 13.2372 12.1768 13.5301 12.4696C13.823 12.7625 13.823 13.2373 13.5301 13.5302L10.5301 16.5302L10.4735 16.5819C10.1789 16.8222 9.74416 16.8048 9.46956 16.5302L6.46956 13.5302L6.4178 13.4735C6.17757 13.1789 6.19498 12.7442 6.46956 12.4696C6.74414 12.1951 7.17889 12.1776 7.47347 12.4179L7.53011 12.4696L9.24983 14.1893V5.81044L7.53011 7.53017C7.23721 7.82306 6.76245 7.82306 6.46956 7.53017C6.17668 7.23727 6.17667 6.76251 6.46956 6.46962L9.46956 3.46962L9.5262 3.41786Z" fill="#939798"/>
</svg>
