<svg width="28" height="28" viewBox="0 0 28 28" fill="none" xmlns="http://www.w3.org/2000/svg">
<path d="M11.0312 7.59375H10.875C10.9609 7.59375 11.0312 7.52344 11.0312 7.4375V7.59375H16.9688V7.4375C16.9688 7.52344 17.0391 7.59375 17.125 7.59375H16.9688V9H18.375V7.4375C18.375 6.74805 17.8145 6.1875 17.125 6.1875H10.875C10.1855 6.1875 9.625 6.74805 9.625 7.4375V9H11.0312V7.59375ZM20.875 9H7.125C6.7793 9 6.5 9.2793 6.5 9.625V10.25C6.5 10.3359 6.57031 10.4062 6.65625 10.4062H7.83594L8.31836 20.6211C8.34961 21.2871 8.90039 21.8125 9.56641 21.8125H18.4336C19.1016 21.8125 19.6504 21.2891 19.6816 20.6211L20.1641 10.4062H21.3438C21.4297 10.4062 21.5 10.3359 21.5 10.25V9.625C21.5 9.2793 21.2207 9 20.875 9ZM18.2832 20.4062H9.7168L9.24414 10.4062H18.7559L18.2832 20.4062Z" fill="#3c79b4"/>
</svg>
